<svg width="18" height="13" viewBox="0 0 18 13" fill="none" xmlns="http://www.w3.org/2000/svg">
<path d="M1.98942 0H16.0106C17.3333 0 18 0.639167 18 1.93917V11.0608C18 12.35 17.3333 13 16.0106 13H1.98942C0.666667 13 0 12.35 0 11.0608V1.93917C0 0.639167 0.666667 0 1.98942 0ZM8.99471 9.31667L16.127 3.32583C16.381 3.10917 16.582 2.61083 16.2646 2.16667C15.9577 1.7225 15.3968 1.71167 15.0265 1.9825L8.99471 6.16417L2.97355 1.9825C2.60317 1.71167 2.04233 1.7225 1.73545 2.16667C1.41799 2.61083 1.61905 3.10917 1.87302 3.32583L8.99471 9.31667Z" fill="#33CCFD"/>
</svg>
