<svg width="20" height="20" viewBox="0 0 20 20" fill="none" xmlns="http://www.w3.org/2000/svg">
<path d="M20 2.33392C20 1.71043 19.7573 1.12461 19.3165 0.683838C18.8757 0.243061 18.2896 0 17.6661 0C17.0426 0 16.4568 0.243061 16.0157 0.683838L15.5442 1.15529L14.1296 2.56964L1.5125 15.1875C1.47582 15.2238 1.44848 15.2685 1.43181 15.3178L0.0171327 19.5612C-0.0228771 19.6809 0.00846388 19.8133 0.097819 19.9023C0.161168 19.9657 0.246522 20 0.333543 20C0.368885 20 0.404227 19.9943 0.438902 19.9827L4.6826 18.568C4.73161 18.5516 4.77629 18.524 4.81297 18.4876L17.4304 5.87013L18.8447 4.45578L19.3165 3.984C19.7573 3.54322 20 2.95741 20 2.33392ZM17.4304 4.92723L15.0728 2.56964L15.5442 2.09819L17.9018 4.45578L17.4304 4.92723ZM1.89392 16.0403L3.96009 18.1062L0.860672 19.1395L1.89392 16.0403ZM4.57724 17.7804L2.21967 15.4232L14.6014 3.04109L16.9589 5.39868L4.57724 17.7804ZM18.3733 3.98433L16.0157 1.62674L16.4871 1.15529C16.8022 0.840543 17.221 0.666833 17.6661 0.666833C18.1112 0.666833 18.53 0.840543 18.8451 1.15529C19.1601 1.47003 19.3332 1.88881 19.3332 2.33392C19.3332 2.77903 19.1598 3.1978 18.8451 3.51254L18.3733 3.98433Z" fill="#499BFC"/>
</svg>
