<svg width="54" height="33" viewBox="0 0 54 33" fill="none" xmlns="http://www.w3.org/2000/svg">
<path fill-rule="evenodd" clip-rule="evenodd" d="M52.7625 2.63161C53.136 1.38036 52.7625 0.459106 50.9738 0.459106H45.0675C43.5645 0.459106 42.8715 1.25432 42.4958 2.13202C42.4958 2.13202 39.492 9.45619 35.2373 14.2137C33.8603 15.5933 33.2348 16.031 32.4833 16.031C32.1075 16.031 31.5428 15.5933 31.5428 14.3397V2.63161C31.5428 1.12827 31.1288 0.459106 29.8778 0.459106H20.5898C19.6515 0.459106 19.0868 1.15577 19.0868 1.81806C19.0868 3.24119 21.2153 3.57119 21.4335 7.57702V16.2808C21.4335 18.1897 21.0893 18.5358 20.3378 18.5358C18.3353 18.5358 13.464 11.1772 10.5728 2.75765C10.0125 1.11911 9.4455 0.459106 7.93575 0.459106H2.025C0.3375 0.459106 0 1.25432 0 2.13202C0 3.69494 2.0025 11.4591 9.32625 21.7281C14.2088 28.7406 21.0825 32.5424 27.3443 32.5424C31.0995 32.5424 31.563 31.6991 31.563 30.2439V24.9433C31.563 23.2543 31.9185 22.9174 33.1088 22.9174C33.9863 22.9174 35.487 23.3574 38.9925 26.7377C42.9975 30.7458 43.6568 32.5424 45.9113 32.5424H51.8175C53.505 32.5424 54.351 31.6991 53.865 30.0308C53.3295 28.3716 51.417 25.9631 48.8813 23.1054C47.5043 21.4783 45.4388 19.7252 44.811 18.8474C43.9358 17.7222 44.1855 17.2204 44.811 16.2189C44.811 16.2189 52.011 6.07598 52.7603 2.63161H52.7625Z" fill="#A6A6A6"/>
</svg>
