<svg width="53" height="37" viewBox="0 0 53 37" fill="none" xmlns="http://www.w3.org/2000/svg">
<path d="M51.7431 6.29493C51.4438 5.22757 50.861 4.26125 50.0565 3.49867C49.2293 2.71265 48.2154 2.15039 47.1105 1.86496C42.9756 0.775078 26.4094 0.775079 26.4094 0.775079C19.5032 0.696503 12.5987 1.0421 5.73478 1.80991C4.62991 2.11643 3.61791 2.69125 2.7888 3.48326C1.97415 4.26709 1.38407 5.23367 1.07582 6.29272C0.335353 10.2818 -0.0244194 14.3322 0.0013589 18.3893C-0.0250624 22.4427 0.333827 26.4918 1.07582 30.4858C1.37747 31.5405 1.96534 32.5026 2.7822 33.2799C3.59906 34.0571 4.61628 34.6186 5.73478 34.9158C9.92476 36.0035 26.4094 36.0035 26.4094 36.0035C33.3245 36.0821 40.2378 35.7366 47.1105 34.9686C48.2154 34.6832 49.2293 34.1209 50.0565 33.3349C50.8711 32.5577 51.4502 31.5911 51.7409 30.5387C52.5007 26.5511 52.8701 22.4991 52.8439 18.4399C52.9011 14.3636 52.5321 10.2924 51.7431 6.29272V6.29493ZM21.1428 25.9281V10.8526L34.9259 18.3915L21.1428 25.9281Z" fill="#A6A6A6"/>
</svg>
