<svg width="112" height="46" viewBox="0 0 112 46" fill="none" xmlns="http://www.w3.org/2000/svg">
<path d="M11.6 15.736C10.768 16.072 9.968 16.328 9.2 16.504C8.432 16.664 7.696 16.744 6.992 16.744C4.736 16.744 3.008 16.208 1.808 15.136C0.608 14.048 0.00800008 12.488 0.00800008 10.456V5.2H3.848V10.024C3.848 11.176 4.16 12.048 4.784 12.64C5.408 13.216 6.296 13.504 7.448 13.504C8.184 13.504 8.896 13.424 9.584 13.264C10.272 13.088 10.912 12.84 11.504 12.52L11.6 15.736ZM11.048 22V5.2H14.888V22H11.048ZM19.0646 22V5.2H22.9286V16.144L30.9446 5.2H34.5926V22H30.7526V11.08L22.7366 22H19.0646ZM46.7195 22.288C45.4235 22.288 44.2155 22.08 43.0955 21.664C41.9915 21.232 41.0315 20.624 40.2155 19.84C39.3995 19.056 38.7595 18.136 38.2955 17.08C37.8475 16.024 37.6235 14.864 37.6235 13.6C37.6235 12.336 37.8475 11.176 38.2955 10.12C38.7595 9.064 39.3995 8.144 40.2155 7.36C41.0475 6.576 42.0155 5.976 43.1195 5.56C44.2235 5.128 45.4315 4.912 46.7435 4.912C48.1995 4.912 49.5115 5.168 50.6795 5.68C51.8635 6.176 52.8555 6.912 53.6555 7.888L51.1595 10.192C50.5835 9.536 49.9435 9.048 49.2395 8.728C48.5355 8.392 47.7675 8.224 46.9355 8.224C46.1515 8.224 45.4315 8.352 44.7755 8.608C44.1195 8.864 43.5515 9.232 43.0715 9.712C42.5915 10.192 42.2155 10.76 41.9435 11.416C41.6875 12.072 41.5595 12.8 41.5595 13.6C41.5595 14.4 41.6875 15.128 41.9435 15.784C42.2155 16.44 42.5915 17.008 43.0715 17.488C43.5515 17.968 44.1195 18.336 44.7755 18.592C45.4315 18.848 46.1515 18.976 46.9355 18.976C47.7675 18.976 48.5355 18.816 49.2395 18.496C49.9435 18.16 50.5835 17.656 51.1595 16.984L53.6555 19.288C52.8555 20.264 51.8635 21.008 50.6795 21.52C49.5115 22.032 48.1915 22.288 46.7195 22.288ZM59.6495 22V7.48L60.5375 8.368H54.2975V5.2H68.8655V8.368H62.6255L63.4895 7.48V22H59.6495ZM79.4428 10.72C81.4748 10.72 83.0428 11.176 84.1468 12.088C85.2508 12.984 85.8028 14.336 85.8028 16.144C85.8028 18.064 85.1868 19.52 83.9548 20.512C82.7388 21.504 81.0508 22 78.8908 22H71.3068V5.2H75.1708V10.72H79.4428ZM78.6748 19.12C79.6668 19.12 80.4508 18.872 81.0268 18.376C81.6028 17.88 81.8907 17.16 81.8907 16.216C81.8907 15.288 81.6028 14.624 81.0268 14.224C80.4668 13.808 79.6828 13.6 78.6748 13.6H75.1708V19.12H78.6748ZM87.9388 22V5.2H91.8028V22H87.9388ZM95.9864 22V5.2H99.8504V16.144L107.866 5.2H111.514V22H107.674V11.08L99.6584 22H95.9864ZM103.738 4.12C102.138 4.12 100.962 3.8 100.21 3.16C99.4744 2.52 99.0984 1.616 99.0824 0.447999H101.746C101.762 1.024 101.93 1.464 102.25 1.768C102.586 2.056 103.082 2.2 103.738 2.2C104.378 2.2 104.866 2.056 105.202 1.768C105.538 1.464 105.714 1.024 105.73 0.447999H108.394C108.378 1.616 107.994 2.52 107.242 3.16C106.49 3.8 105.322 4.12 103.738 4.12Z" fill="#87C879"/>
<path d="M1.088 42V25.2H12.944L12.92 28.368H4.04L4.928 27.48L4.952 42H1.088ZM21.6436 42.288C20.3156 42.288 19.0836 42.072 17.9476 41.64C16.8276 41.208 15.8516 40.6 15.0196 39.816C14.2036 39.032 13.5636 38.112 13.0996 37.056C12.6516 36 12.4276 34.848 12.4276 33.6C12.4276 32.352 12.6516 31.2 13.0996 30.144C13.5636 29.088 14.2116 28.168 15.0436 27.384C15.8756 26.6 16.8516 25.992 17.9716 25.56C19.0916 25.128 20.3076 24.912 21.6196 24.912C22.9476 24.912 24.1636 25.128 25.2676 25.56C26.3876 25.992 27.3556 26.6 28.1716 27.384C29.0036 28.168 29.6516 29.088 30.1156 30.144C30.5796 31.184 30.8116 32.336 30.8116 33.6C30.8116 34.848 30.5796 36.008 30.1156 37.08C29.6516 38.136 29.0036 39.056 28.1716 39.84C27.3556 40.608 26.3876 41.208 25.2676 41.64C24.1636 42.072 22.9556 42.288 21.6436 42.288ZM21.6196 38.976C22.3716 38.976 23.0596 38.848 23.6836 38.592C24.3236 38.336 24.8836 37.968 25.3636 37.488C25.8436 37.008 26.2116 36.44 26.4676 35.784C26.7396 35.128 26.8756 34.4 26.8756 33.6C26.8756 32.8 26.7396 32.072 26.4676 31.416C26.2116 30.76 25.8436 30.192 25.3636 29.712C24.8996 29.232 24.3476 28.864 23.7076 28.608C23.0676 28.352 22.3716 28.224 21.6196 28.224C20.8676 28.224 20.1716 28.352 19.5316 28.608C18.9076 28.864 18.3556 29.232 17.8756 29.712C17.3956 30.192 17.0196 30.76 16.7476 31.416C16.4916 32.072 16.3636 32.8 16.3636 33.6C16.3636 34.384 16.4916 35.112 16.7476 35.784C17.0196 36.44 17.3876 37.008 17.8516 37.488C18.3316 37.968 18.8916 38.336 19.5316 38.592C20.1716 38.848 20.8676 38.976 21.6196 38.976ZM33.8068 42V25.2H41.0788C42.5828 25.2 43.8788 25.448 44.9668 25.944C46.0548 26.424 46.8948 27.12 47.4868 28.032C48.0788 28.944 48.3748 30.032 48.3748 31.296C48.3748 32.544 48.0788 33.624 47.4868 34.536C46.8948 35.448 46.0548 36.152 44.9668 36.648C43.8788 37.128 42.5828 37.368 41.0788 37.368H35.9668L37.6948 35.616V42H33.8068ZM37.6948 36.048L35.9668 34.2H40.8628C42.0628 34.2 42.9588 33.944 43.5508 33.432C44.1428 32.92 44.4388 32.208 44.4388 31.296C44.4388 30.368 44.1428 29.648 43.5508 29.136C42.9588 28.624 42.0628 28.368 40.8628 28.368H35.9668L37.6948 26.52V36.048ZM59.2139 42.288C57.8859 42.288 56.6539 42.072 55.5179 41.64C54.3979 41.208 53.4219 40.6 52.5899 39.816C51.7739 39.032 51.1339 38.112 50.6699 37.056C50.2219 36 49.9979 34.848 49.9979 33.6C49.9979 32.352 50.2219 31.2 50.6699 30.144C51.1339 29.088 51.7819 28.168 52.6139 27.384C53.4459 26.6 54.4219 25.992 55.5419 25.56C56.6619 25.128 57.8779 24.912 59.1899 24.912C60.5179 24.912 61.7339 25.128 62.8379 25.56C63.9579 25.992 64.9259 26.6 65.7419 27.384C66.5739 28.168 67.2219 29.088 67.6859 30.144C68.1499 31.184 68.3819 32.336 68.3819 33.6C68.3819 34.848 68.1499 36.008 67.6859 37.08C67.2219 38.136 66.5739 39.056 65.7419 39.84C64.9259 40.608 63.9579 41.208 62.8379 41.64C61.7339 42.072 60.5259 42.288 59.2139 42.288ZM59.1899 38.976C59.9419 38.976 60.6299 38.848 61.2539 38.592C61.8939 38.336 62.4539 37.968 62.9339 37.488C63.4139 37.008 63.7819 36.44 64.0379 35.784C64.3099 35.128 64.4459 34.4 64.4459 33.6C64.4459 32.8 64.3099 32.072 64.0379 31.416C63.7819 30.76 63.4139 30.192 62.9339 29.712C62.4699 29.232 61.9179 28.864 61.2779 28.608C60.6379 28.352 59.9419 28.224 59.1899 28.224C58.4379 28.224 57.7419 28.352 57.1019 28.608C56.4779 28.864 55.9259 29.232 55.4459 29.712C54.9659 30.192 54.5899 30.76 54.3179 31.416C54.0619 32.072 53.9339 32.8 53.9339 33.6C53.9339 34.384 54.0619 35.112 54.3179 35.784C54.5899 36.44 54.9579 37.008 55.4219 37.488C55.9019 37.968 56.4619 38.336 57.1019 38.592C57.7419 38.848 58.4379 38.976 59.1899 38.976ZM82.0443 40.272V28.368H76.2843L76.2123 30.816C76.1643 31.856 76.0923 32.84 75.9963 33.768C75.9163 34.696 75.7883 35.544 75.6123 36.312C75.4363 37.064 75.2043 37.704 74.9163 38.232C74.6443 38.76 74.3003 39.136 73.8843 39.36L69.7323 38.832C70.3083 38.848 70.7803 38.648 71.1483 38.232C71.5323 37.816 71.8363 37.232 72.0603 36.48C72.2843 35.712 72.4443 34.816 72.5403 33.792C72.6523 32.768 72.7323 31.656 72.7803 30.456L72.9723 25.2H85.8843V40.272H82.0443ZM69.1803 45.48L69.2043 38.832H88.2363V45.48H84.6363V42H72.7803V45.48H69.1803Z" fill="#33CCFD"/>
</svg>
